# xmcd CD database file
#
# Track frame offsets:
#	150
#	22072
#	41561
#	53946
#	74627
#	95154
#	108652
#	127249
#	143898
#	166300
#	184391
#	200325
#	218077
#	234445
#	251639
#	266447
#
# Disc length: 3779 seconds
#
# Revision: 1
# Processed by: cddbd v1.5.1PL0 Copyright (c) Steve Scherf et al.
# Submitted via: CDex 1.51
#
DISCID=fd0ec110
DTITLE=Arne Domnerus Bossa Orchestra - A Little Bossa Nova
DYEAR=1998
DGENRE=Jazz
TTITLE0=Manha de Carnival
TTITLE1=Chovendo na Roseira
TTITLE2=Unforgettable
TTITLE3=Samba de Orfeu
TTITLE4=The Sweetest Sounds
TTITLE5=The Shadow of Your Smile
TTITLE6=The Girl from Ipanema
TTITLE7=Favela
TTITLE8=I Concentrate on You
TTITLE9=A Felicidade
TTITLE10=First Time
TTITLE11=Samba Triste
TTITLE12=No More Blues
TTITLE13=Somewhere over the Rainbow
TTITLE14=Samba Intrikat
TTITLE15=All the Things You Are
EXTD=YEAR: 1998
EXTT0=
EXTT1=
EXTT2=
EXTT3=
EXTT4=
EXTT5=
EXTT6=
EXTT7=
EXTT8=
EXTT9=
EXTT10=
EXTT11=
EXTT12=
EXTT13=
EXTT14=
EXTT15=
PLAYORDER=
